<svg xmlns="http://www.w3.org/2000/svg" viewBox="0 0 240 220">
  <defs>
    <clipPath id="heart">
      <path d="M120 198 C 40 150, 14 96, 38 56 C 60 20, 108 22, 120 62 C 132 22, 180 20, 202 56 C 226 96, 200 150, 120 198 Z"></path>
    </clipPath>
  </defs>
  <g clip-path="url(#heart)">
    
    <rect x="0" y="0" width="120" height="220" fill="#FEF387"></rect>
    <g fill="#FFF593" opacity="0.9">
      
      <circle cx="80" cy="90" r="46" fill="#FEE258"></circle>
      <g stroke="#FEE258" stroke-width="8" stroke-linecap="round">
        <line x1="80" y1="30" x2="80" y2="12"></line>
        <line x1="80" y1="150" x2="80" y2="170"></line>
        <line x1="20" y1="90" x2="4" y2="90"></line>
        <line x1="138" y1="90" x2="156" y2="90"></line>
        <line x1="40" y1="50" x2="28" y2="38"></line>
        <line x1="120" y1="50" x2="132" y2="38"></line>
        <line x1="40" y1="130" x2="28" y2="142"></line>
        <line x1="120" y1="130" x2="132" y2="142"></line>
      </g>
    </g>
    
    <rect x="120" y="0" width="120" height="220" fill="#B8EFF0"></rect>
    <path d="M120 60 Q 150 40, 180 60 T 240 60 L 240 220 L 120 220 Z" fill="#37D3D6"></path>
    <path d="M120 100 Q 150 80, 180 100 T 240 100 L 240 220 L 120 220 Z" fill="#1FB3B6" opacity="0.85"></path>
    <path d="M120 140 Q 150 124, 180 140 T 240 140 L 240 220 L 120 220 Z" fill="#0E9699" opacity="0.7"></path>
  </g>
  
  <path d="M120 198 C 40 150, 14 96, 38 56 C 60 20, 108 22, 120 62 C 132 22, 180 20, 202 56 C 226 96, 200 150, 120 198 Z" fill="none" stroke="#F4A6AC" stroke-width="6" stroke-linejoin="round"></path>
</svg>